<svg xmlns="http://www.w3.org/2000/svg" viewBox="0 0 1244 204">
  <path d="M434.3 202.5c-69.3 0-112.8-38.6-112.8-100.5S365 1.5 434.3 1.5s82.6 20.3 99.3 54.1l-27.3 9.2c-11.6-22.2-37-34.5-72-34.5-53.6 0-83.6 25.6-83.6 71.7s30 71.7 83.6 71.7 55.6-9.4 67.6-26.6l28 8.2c-17.9 29.2-53.1 47.1-95.6 47.1ZM738.4 5.4v27.8h-143v56.5h117.1v27.8H595.4v53.4h143v27.8h-172V5.4h172Zm71.5 0L935.5 159V5.4h29v193.2h-33.1L806 45.5v153.1h-29V5.4h32.8Zm222.2 0v193.2h-29V5.4h29Zm210.6 0v27.8h-143v56.5h117.1v27.8h-117.1v53.4h143v27.8h-172V5.4h172ZM195.1 157.3c-16.4-3.8-27.7-14.8-27.7-31.8V99.9c0-37.1-31-67.2-69.2-67.2S29 62.7 29 99.8v25.4c0 17-11.1 31.3-27.4 35.2h-.3V99.7c0-3.3.2-6.5.5-9.7 5-47.6 45.8-84.9 96.4-84.9s91.5 37.4 96.4 85.3c.3 3.1.5 6.3.5 9.5v57.4ZM1.3 171.1h193.8v27.7H1.3z"/>
</svg>