<svg xmlns="http://www.w3.org/2000/svg" viewBox="0 0 938.4 210.7">
  <path fill="white" d="M121.6 205.8c-70.8 0-115.2-38.6-115.2-100.5S50.9 4.9 121.6 4.9s84.1 20 101.2 53.4l-37.7 12.8c-9.4-17.9-30.9-27.8-63.5-27.8-49 0-76.3 22.2-76.3 62.1s27.3 62.1 76.3 62.1 47.6-8 57-19.8l40.6 11.6c-18.1 29-54.1 46.6-97.6 46.6ZM425.2 8.7v37.4H289.5v42h109.9v37.4H289.5v38.9h135.7v37.4H250.8V8.7h174.4Zm76.4 0 111.1 135.7V8.7h38.6v193.2h-40.8L497.7 64v137.9h-38.6V8.7h42.5Zm222.2 0v193.2h-38.6V8.7h38.6Zm208.2 0v37.4H796.3v42h109.9v37.4H796.3v38.9H932v37.4H757.6V8.7H932Z"/>
</svg>