<svg xmlns="http://www.w3.org/2000/svg" viewBox="0 0 1328.7 278.9">
  <path d="M480.4 239.9c-69.3 0-112.8-38.6-112.8-100.5S411.1 38.9 480.4 38.9 563 59.2 579.7 93l-27.3 9.2c-11.6-22.2-37-34.5-72-34.5-53.6 0-83.6 25.6-83.6 71.7s30 71.7 83.6 71.7 55.6-9.4 67.6-26.6l28 8.2c-17.9 29.2-53.1 47.1-95.6 47.1ZM784.5 42.8v27.8h-143v56.5h117.1v27.8H641.5v53.4h143v27.8h-172V42.8h172Zm71.5 0 125.6 153.6V42.8h29V236h-33.1L852.1 82.9V236h-29V42.8h32.8Zm222.2 0V236h-29V42.8h29Zm210.6 0v27.8h-143v56.5h117.1v27.8h-117.1v53.4h143v27.8h-172V42.8h172ZM241.2 194.5c-16.4-3.8-27.7-14.8-27.7-31.8v-25.6c0-37.1-31-67.2-69.2-67.2S75 99.9 75 137v25.4c0 17-11.1 31.3-27.4 35.2h-.3v-60.7c0-3.3.2-6.5.5-9.7 5-47.8 45.9-85.2 96.4-85.2s91.5 37.4 96.4 85.3c.3 3.1.5 6.3.5 9.5v57.4ZM47.4 208.3h193.8V236H47.4z"/>
</svg>