<svg xmlns="http://www.w3.org/2000/svg" id="Layer_1" data-name="Layer 1" viewBox="0 0 600 906">
<defs>
    <linearGradient id="linear-gradient" x1="-121.15" x2="721.15" y1="209.85" y2="696.15" gradientUnits="userSpaceOnUse">
        <stop offset="0" stop-color="#003f5a"/><stop offset=".9" stop-color="#132933"/>
    </linearGradient>
    <style>.cls-3{fill:#132933}</style>
</defs>
<path d="M0 0h600v906H0z" style="fill:url(#linear-gradient);opacity:1"/>
<g style="opacity:1">
    <path d="M496.02 572.55s-.03-.01-.04-.01c-32.82-7.95-57.18-37.52-57.18-72.77l.02-52.86c0-76.67-62.14-138.82-138.82-138.82s-138.82 62.14-138.82 138.82v52.58c0 35.12-23.95 64.61-56.58 72.68-.2.06-.42.1-.62.16V446.92c0-6.75.34-13.43 1.01-20.01C115.01 328.05 198.49 250.9 300 250.9s185.17 77.31 195.04 176.34c.65 6.47.98 13.04.98 19.68v125.64ZM104.01 597.8h391.97v57.3H104.01z" class="cls-3"/>
</g>
</svg>